<?xml version="1.0" encoding="UTF-8" standalone="no"?>
<!-- Created with Inkscape (http://www.inkscape.org/) -->

<svg
   xmlns:dc="http://purl.org/dc/elements/1.1/"
   xmlns:cc="http://creativecommons.org/ns#"
   xmlns:rdf="http://www.w3.org/1999/02/22-rdf-syntax-ns#"
   xmlns:svg="http://www.w3.org/2000/svg"
   xmlns="http://www.w3.org/2000/svg"
   xmlns:xlink="http://www.w3.org/1999/xlink"
   xmlns:sodipodi="http://sodipodi.sourceforge.net/DTD/sodipodi-0.dtd"
   xmlns:inkscape="http://www.inkscape.org/namespaces/inkscape"
   id="svg2"
   sodipodi:docname="josm logo.svg"
   viewBox="0 0 200 200"
   version="1.1"
   inkscape:version="0.48.4 r9939"
   width="100%"
   height="100%">
  <defs
     id="defs14">
    <filter
       id="filter4194-3"
       height="1.2205"
       width="1.1357"
       color-interpolation-filters="sRGB"
       y="-0.11025"
       x="-0.067846">
      <feGaussianBlur
         id="feGaussianBlur4196-9"
         stdDeviation="7.453726" />
    </filter>
    <radialGradient
       id="radialGradient4155"
       xlink:href="#linearGradient7124"
       gradientUnits="userSpaceOnUse"
       cy="218.3"
       cx="305.89999"
       gradientTransform="matrix(0.1007,1.0897,-2.0556,0.18997,721.02,-132.84)"
       r="86.902"
       inkscape:collect="always" />
    <linearGradient
       id="linearGradient7124">
      <stop
         id="stop7126"
         style="stop-color:#69f931"
         offset="0" />
      <stop
         id="stop7128"
         style="stop-color:#f1fee4;stop-opacity:.043478"
         offset="1" />
    </linearGradient>
    <radialGradient
       id="radialGradient4157"
       xlink:href="#linearGradient7124"
       gradientUnits="userSpaceOnUse"
       cy="428.09"
       cx="415.85999"
       gradientTransform="matrix(-0.36185,1.5532,-2.5863,-0.60254,1686.8,53.041)"
       r="82.419998"
       inkscape:collect="always" />
    <linearGradient
       id="linearGradient3085">
      <stop
         id="stop3087"
         style="stop-color:#69f931"
         offset="0" />
      <stop
         id="stop3089"
         style="stop-color:#f1fee4;stop-opacity:.043478"
         offset="1" />
    </linearGradient>
    <filter
       id="filter3445"
       inkscape:label="Inner Glow"
       inkscape:menu="Shadows and Glows"
       inkscape:menu-tooltip="Adds a colorizable glow inside"
       color-interpolation-filters="sRGB">
      <feGaussianBlur
         id="feGaussianBlur3447"
         stdDeviation="10"
         result="result8" />
      <feComposite
         id="feComposite3449"
         in2="result8"
         result="result6"
         in="SourceGraphic"
         operator="in" />
      <feComposite
         id="feComposite3451"
         in2="result6"
         operator="in"
         result="result11" />
      <feFlood
         id="feFlood3453"
         result="result10"
         in="result11"
         flood-opacity="1"
         flood-color="rgb(255,222,85)" />
      <feBlend
         id="feBlend3455"
         in2="result10"
         mode="normal"
         in="result11"
         result="result12" />
      <feComposite
         id="feComposite3457"
         in2="SourceGraphic"
         result="result2"
         operator="in"
         in="result12" />
    </filter>
    <linearGradient
       inkscape:collect="always"
       xlink:href="#linearGradient8735"
       id="linearGradient3309"
       gradientUnits="userSpaceOnUse"
       x1="122"
       y1="245.45"
       x2="122"
       y2="4.302" />
    <linearGradient
       id="linearGradient8735"
       y2="4.302"
       gradientUnits="userSpaceOnUse"
       x2="122"
       y1="245.45"
       x1="122">
      <stop
         id="stop8731"
         offset="0" />
      <stop
         id="stop8733"
         stop-opacity="0"
         offset="1" />
    </linearGradient>
    <filter
       color-interpolation-filters="sRGB"
       id="filter8725">
      <feGaussianBlur
         id="feGaussianBlur8727"
         stdDeviation="4.4575" />
    </filter>
    <clipPath
       id="clipPath5466"
       clipPathUnits="userSpaceOnUse">
      <path
         style="fill:#ceeeab"
         inkscape:connector-curvature="0"
         id="path5468"
         d="m 9,12.25 c 0,0 7.5,13 11.75,27.75 C 25,54.75 27,65.5 27,65.5 c 0,0 -5.5,12.75 -8.25,24.75 -2.75,12 -5.75,23 -5.75,23 0,0 5.75,16 9.25,30 3.5,14 3.75,24.25 3.75,24.25 0,0 -4,10.25 -7.5,24.25 -3.5,14 -5,30.75 -5,30.75 0,0 9.25,-2 28.5,1.25 19.25,3.25 32.25,6 32.25,6 0,0 12.75,-2.75 24,-6.25 11.25,-3.5 16.25,-6.5 16.25,-6.5 0,0 5.5,0.5 22.5,6.25 17,5.75 29.25,8.5 29.25,8.5 0,0 13,-2.75 26,-5.75 13,-3 26.5,-8 26.5,-8 0,0 -0.75,-5 4.25,-24.5 5,-19.5 8.75,-28 8.75,-28 0,0 -0.5,-4.5 -3.75,-19.75 C 224.75,130.5 218,116 218,116 c 0,0 1.75,-10.5 6.75,-23.75 C 229.75,79 235,65.5 235,65.5 c 0,0 -4.75,-15.25 -7.5,-29.75 C 224.75,21.25 219.25,10 219.25,10 c 0,0 -24.25,9 -31.75,10.5 -7.5,1.5 -21,5.25 -21,5.25 0,0 -9.75,-4.25 -22,-8.5 -12.25,-4.25 -29.75,-5.5 -29.75,-5.5 0,0 -3.25,3.5 -22,8 -18.75,4.5 -27.5,5.75 -27.5,5.75 0,0 -18.5,-9 -31.5,-11.5 -13,-2.5 -24,-2 -24.75,-1.75 z" />
    </clipPath>
    <clipPath
       id="clipPath5383"
       clipPathUnits="userSpaceOnUse">
      <path
         style="fill:#ceeeab"
         inkscape:connector-curvature="0"
         id="path5385"
         d="m 9,12.25 c 0,0 7.5,13 11.75,27.75 C 25,54.75 27,65.5 27,65.5 c 0,0 -5.5,12.75 -8.25,24.75 -2.75,12 -5.75,23 -5.75,23 0,0 5.75,16 9.25,30 3.5,14 3.75,24.25 3.75,24.25 0,0 -4,10.25 -7.5,24.25 -3.5,14 -5,30.75 -5,30.75 0,0 9.25,-2 28.5,1.25 19.25,3.25 32.25,6 32.25,6 0,0 12.75,-2.75 24,-6.25 11.25,-3.5 16.25,-6.5 16.25,-6.5 0,0 5.5,0.5 22.5,6.25 17,5.75 29.25,8.5 29.25,8.5 0,0 13,-2.75 26,-5.75 13,-3 26.5,-8 26.5,-8 0,0 -0.75,-5 4.25,-24.5 5,-19.5 8.75,-28 8.75,-28 0,0 -0.5,-4.5 -3.75,-19.75 C 224.75,130.5 218,116 218,116 c 0,0 1.75,-10.5 6.75,-23.75 C 229.75,79 235,65.5 235,65.5 c 0,0 -4.75,-15.25 -7.5,-29.75 C 224.75,21.25 219.25,10 219.25,10 c 0,0 -24.25,9 -31.75,10.5 -7.5,1.5 -21,5.25 -21,5.25 0,0 -9.75,-4.25 -22,-8.5 -12.25,-4.25 -29.75,-5.5 -29.75,-5.5 0,0 -3.25,3.5 -22,8 -18.75,4.5 -27.5,5.75 -27.5,5.75 0,0 -18.5,-9 -31.5,-11.5 -13,-2.5 -24,-2 -24.75,-1.75 z" />
    </clipPath>
    <clipPath
       id="clipPath5426"
       clipPathUnits="userSpaceOnUse">
      <path
         style="fill:#ceeeab"
         inkscape:connector-curvature="0"
         id="path5428"
         d="m 9,12.25 c 0,0 7.5,13 11.75,27.75 C 25,54.75 27,65.5 27,65.5 c 0,0 -5.5,12.75 -8.25,24.75 -2.75,12 -5.75,23 -5.75,23 0,0 5.75,16 9.25,30 3.5,14 3.75,24.25 3.75,24.25 0,0 -4,10.25 -7.5,24.25 -3.5,14 -5,30.75 -5,30.75 0,0 9.25,-2 28.5,1.25 19.25,3.25 32.25,6 32.25,6 0,0 12.75,-2.75 24,-6.25 11.25,-3.5 16.25,-6.5 16.25,-6.5 0,0 5.5,0.5 22.5,6.25 17,5.75 29.25,8.5 29.25,8.5 0,0 13,-2.75 26,-5.75 13,-3 26.5,-8 26.5,-8 0,0 -0.75,-5 4.25,-24.5 5,-19.5 8.75,-28 8.75,-28 0,0 -0.5,-4.5 -3.75,-19.75 C 224.75,130.5 218,116 218,116 c 0,0 1.75,-10.5 6.75,-23.75 C 229.75,79 235,65.5 235,65.5 c 0,0 -4.75,-15.25 -7.5,-29.75 C 224.75,21.25 219.25,10 219.25,10 c 0,0 -24.25,9 -31.75,10.5 -7.5,1.5 -21,5.25 -21,5.25 0,0 -9.75,-4.25 -22,-8.5 -12.25,-4.25 -29.75,-5.5 -29.75,-5.5 0,0 -3.25,3.5 -22,8 -18.75,4.5 -27.5,5.75 -27.5,5.75 0,0 -18.5,-9 -31.5,-11.5 -13,-2.5 -24,-2 -24.75,-1.75 z" />
    </clipPath>
    <linearGradient
       inkscape:collect="always"
       xlink:href="#linearGradient4744-9"
       id="linearGradient3311"
       gradientUnits="userSpaceOnUse"
       x1="214.25"
       y1="-161.36"
       x2="166.5"
       y2="-113.72" />
    <linearGradient
       id="linearGradient4744-9">
      <stop
         id="stop4746-3"
         stop-color="#fff"
         offset="0" />
      <stop
         id="stop4748-8"
         stop-color="#fff"
         stop-opacity="0"
         offset="1" />
    </linearGradient>
    <linearGradient
       inkscape:collect="always"
       xlink:href="#linearGradient4744-9"
       id="linearGradient3313"
       gradientUnits="userSpaceOnUse"
       x1="53.25"
       y1="-126.5"
       x2="57.655998"
       y2="-62.469002" />
    <linearGradient
       id="linearGradient3182">
      <stop
         id="stop3184"
         stop-color="#fff"
         offset="0" />
      <stop
         id="stop3186"
         stop-color="#fff"
         stop-opacity="0"
         offset="1" />
    </linearGradient>
    <linearGradient
       inkscape:collect="always"
       xlink:href="#linearGradient4744-9"
       id="linearGradient3315"
       gradientUnits="userSpaceOnUse"
       x1="39.5"
       y1="6.625"
       x2="75.719002"
       y2="-17.125" />
    <linearGradient
       id="linearGradient3189">
      <stop
         id="stop3191"
         stop-color="#fff"
         offset="0" />
      <stop
         id="stop3193"
         stop-color="#fff"
         stop-opacity="0"
         offset="1" />
    </linearGradient>
    <linearGradient
       inkscape:collect="always"
       xlink:href="#linearGradient4744-9"
       id="linearGradient3317"
       gradientUnits="userSpaceOnUse"
       x1="102"
       y1="-162.34"
       x2="85.311996"
       y2="-121.44" />
    <linearGradient
       id="linearGradient3196">
      <stop
         id="stop3198"
         stop-color="#fff"
         offset="0" />
      <stop
         id="stop3200"
         stop-color="#fff"
         stop-opacity="0"
         offset="1" />
    </linearGradient>
    <linearGradient
       inkscape:collect="always"
       xlink:href="#linearGradient4744-9"
       id="linearGradient3319"
       gradientUnits="userSpaceOnUse"
       x1="117.75"
       y1="-78.094002"
       x2="63.5"
       y2="-14.75" />
    <linearGradient
       id="linearGradient3203">
      <stop
         id="stop3205"
         stop-color="#fff"
         offset="0" />
      <stop
         id="stop3207"
         stop-color="#fff"
         stop-opacity="0"
         offset="1" />
    </linearGradient>
    <linearGradient
       inkscape:collect="always"
       xlink:href="#linearGradient4744-9"
       id="linearGradient3321"
       gradientUnits="userSpaceOnUse"
       x1="180.69"
       y1="-125.12"
       x2="133.94"
       y2="-60.75" />
    <linearGradient
       id="linearGradient3210">
      <stop
         id="stop3212"
         stop-color="#fff"
         offset="0" />
      <stop
         id="stop3214"
         stop-color="#fff"
         stop-opacity="0"
         offset="1" />
    </linearGradient>
    <linearGradient
       inkscape:collect="always"
       xlink:href="#linearGradient4744-9"
       id="linearGradient3323"
       gradientUnits="userSpaceOnUse"
       x1="170.75"
       y1="-23.5"
       x2="130.22"
       y2="33.375" />
    <linearGradient
       id="linearGradient3217">
      <stop
         id="stop3219"
         stop-color="#fff"
         offset="0" />
      <stop
         id="stop3221"
         stop-color="#fff"
         stop-opacity="0"
         offset="1" />
    </linearGradient>
    <linearGradient
       inkscape:collect="always"
       xlink:href="#linearGradient4744-9"
       id="linearGradient3325"
       gradientUnits="userSpaceOnUse"
       x1="213.5"
       y1="-76"
       x2="181.75"
       y2="-5.6563001" />
    <linearGradient
       id="linearGradient3224">
      <stop
         id="stop3226"
         stop-color="#fff"
         offset="0" />
      <stop
         id="stop3228"
         stop-color="#fff"
         stop-opacity="0"
         offset="1" />
    </linearGradient>
    <linearGradient
       inkscape:collect="always"
       xlink:href="#linearGradient4680"
       id="linearGradient3327"
       gradientUnits="userSpaceOnUse"
       x1="94.25"
       y1="-94.671997"
       x2="9"
       y2="-179.97" />
    <linearGradient
       id="linearGradient4680">
      <stop
         id="stop4682"
         offset="0" />
      <stop
         id="stop4684"
         stop-opacity="0"
         offset="1" />
    </linearGradient>
    <linearGradient
       inkscape:collect="always"
       xlink:href="#linearGradient4680"
       id="linearGradient3329"
       gradientUnits="userSpaceOnUse"
       x1="50.75"
       y1="-114.44"
       x2="35.75"
       y2="-30.438" />
    <linearGradient
       id="linearGradient3235">
      <stop
         id="stop3237"
         offset="0" />
      <stop
         id="stop3239"
         stop-opacity="0"
         offset="1" />
    </linearGradient>
    <linearGradient
       inkscape:collect="always"
       xlink:href="#linearGradient4680"
       id="linearGradient3331"
       gradientUnits="userSpaceOnUse"
       x1="77.625"
       y1="-163.12"
       x2="115.25"
       y2="-74.625" />
    <linearGradient
       id="linearGradient3242">
      <stop
         id="stop3244"
         offset="0" />
      <stop
         id="stop3246"
         stop-opacity="0"
         offset="1" />
    </linearGradient>
    <linearGradient
       inkscape:collect="always"
       xlink:href="#linearGradient4680"
       id="linearGradient3333"
       gradientUnits="userSpaceOnUse"
       x1="56.5"
       y1="-50.438"
       x2="125.72"
       y2="7.0625" />
    <linearGradient
       id="linearGradient3249">
      <stop
         id="stop3251"
         offset="0" />
      <stop
         id="stop3253"
         stop-opacity="0"
         offset="1" />
    </linearGradient>
    <linearGradient
       inkscape:collect="always"
       xlink:href="#linearGradient4680"
       id="linearGradient3335"
       gradientUnits="userSpaceOnUse"
       x1="35"
       y1="-163.3"
       x2="180.75"
       y2="-146.8" />
    <linearGradient
       id="linearGradient3256">
      <stop
         id="stop3258"
         offset="0" />
      <stop
         id="stop3260"
         stop-opacity="0"
         offset="1" />
    </linearGradient>
    <linearGradient
       inkscape:collect="always"
       xlink:href="#linearGradient4680"
       id="linearGradient3337"
       gradientUnits="userSpaceOnUse"
       x1="57"
       y1="-141.11"
       x2="179"
       y2="-41.609001" />
    <linearGradient
       id="linearGradient3263">
      <stop
         id="stop3265"
         offset="0" />
      <stop
         id="stop3267"
         stop-opacity="0"
         offset="1" />
    </linearGradient>
    <linearGradient
       inkscape:collect="always"
       xlink:href="#linearGradient4680"
       id="linearGradient3339"
       gradientUnits="userSpaceOnUse"
       x1="156"
       y1="-26.5"
       x2="208.25"
       y2="39.75" />
    <linearGradient
       id="linearGradient3270">
      <stop
         id="stop3272"
         offset="0" />
      <stop
         id="stop3274"
         stop-opacity="0"
         offset="1" />
    </linearGradient>
    <linearGradient
       inkscape:collect="always"
       xlink:href="#linearGradient4680"
       id="linearGradient3341"
       gradientUnits="userSpaceOnUse"
       x1="142.75"
       y1="-169.3"
       x2="235"
       y2="-77.296997" />
    <linearGradient
       id="linearGradient3277">
      <stop
         id="stop3279"
         offset="0" />
      <stop
         id="stop3281"
         stop-opacity="0"
         offset="1" />
    </linearGradient>
  </defs>
  <sodipodi:namedview
     id="base"
     fit-margin-left="0"
     inkscape:zoom="0.99"
     borderopacity="1.0"
     inkscape:current-layer="layer1"
     inkscape:cx="191.5959"
     inkscape:cy="139.46917"
     inkscape:window-maximized="1"
     showgrid="false"
     fit-margin-right="0"
     showguides="true"
     bordercolor="#666666"
     inkscape:window-x="0"
     inkscape:guide-bbox="true"
     inkscape:window-y="0"
     fit-margin-bottom="0"
     inkscape:window-width="1024"
     inkscape:pageopacity="0.0"
     inkscape:pageshadow="2"
     pagecolor="#ffffff"
     inkscape:document-units="px"
     inkscape:window-height="578"
     fit-margin-top="0" />
  <g
     id="layer1"
     inkscape:label="Ebene 1"
     inkscape:groupmode="layer"
     transform="translate(-132.35,-50.049)">
    <g
       id="g3268"
       transform="matrix(0.2699048,0,0,0.30596274,88.050283,-12.510232)"
       style="filter:url(#filter3445)">
      <path
         inkscape:connector-curvature="0"
         style="opacity:0.5;fill:url(#linearGradient3309);filter:url(#filter8725)"
         transform="matrix(3.2056164,0,0,2.400191,169.56615,276.13441)"
         d="m 9,17.25 c 0,0 7.5,11 11.75,25.75 C 25,57.75 27,68.5 27,68.5 c 0,0 -5.5,12.75 -8.25,24.75 -2.75,12 -5.75,25 -5.75,25 0,0 5.75,16 9.25,30 3.5,14 3.75,22.25 3.75,22.25 0,0 -4,10.25 -7.5,24.25 -3.5,14 -5,30.75 -5,30.75 0,0 9.25,-2 28.5,1.25 19.25,3.25 32.25,6 32.25,6 0,0 12.75,-2.75 24,-6.25 11.25,-3.5 16.25,-6.5 16.25,-6.5 0,0 5.5,0.5 22.5,6.25 17,5.75 29.25,8.5 29.25,8.5 0,0 13,-2.75 26,-5.75 13,-3 26.5,-8 26.5,-8 0,0 -0.75,-5 4.25,-24.5 5,-19.5 8.75,-28 8.75,-28 0,0 -0.5,-2.5 -3.75,-17.75 C 224.75,135.5 218,121 218,121 c 0,0 1.75,-12.5 6.75,-25.75 C 229.75,82 235,68.5 235,68.5 c 0,0 -4.75,-15.25 -7.5,-29.75 C 224.75,24.25 219.25,15 219.25,15 c 0,0 -24.25,9 -31.75,10.5 -7.5,1.5 -21,5.25 -21,5.25 0,0 -9.75,-4.25 -22,-8.5 -12.25,-4.25 -29.75,-5.5 -29.75,-5.5 0,0 -3.25,3.5 -22,8 -18.75,4.5 -27.5,5.75 -27.5,5.75 0,0 -18.5,-9 -31.5,-11.5 -13,-2.5 -24,-2 -24.75,-1.75 z"
         id="path3834-49-7" />
      <g
         transform="matrix(3.2056164,0,0,2.835195,143.92122,226.06487)"
         id="layer4">
        <path
           style="fill:#ceeeab"
           inkscape:connector-curvature="0"
           d="m 9,2.25 c 0,0 7.5,13 11.75,27.75 C 25,44.75 27,55.5 27,55.5 c 0,0 -5.5,12.75 -8.25,24.75 -2.75,12 -5.75,23 -5.75,23 0,0 5.75,16 9.25,30 3.5,14 3.75,24.25 3.75,24.25 0,0 -4,10.25 -7.5,24.25 -3.5,14 -5,30.75 -5,30.75 0,0 9.25,-2 28.5,1.25 19.25,3.25 32.25,6 32.25,6 0,0 12.75,-2.75 24,-6.25 11.25,-3.5 16.25,-6.5 16.25,-6.5 0,0 5.5,0.5 22.5,6.25 17,5.75 29.25,8.5 29.25,8.5 0,0 13,-2.75 26,-5.75 13,-3 26.5,-8 26.5,-8 0,0 -0.75,-5 4.25,-24.5 5,-19.5 8.75,-28 8.75,-28 0,0 -0.5,-4.5 -3.75,-19.75 C 224.75,120.5 218,106 218,106 c 0,0 1.75,-10.5 6.75,-23.75 C 229.75,69 235,55.5 235,55.5 c 0,0 -4.75,-15.25 -7.5,-29.75 C 224.75,11.25 219.25,0 219.25,0 c 0,0 -24.25,9 -31.75,10.5 -7.5,1.5 -21,5.25 -21,5.25 0,0 -9.75,-4.25 -22,-8.5 -12.25,-4.25 -29.75,-5.5 -29.75,-5.5 0,0 -3.25,3.5 -22,8 -18.75,4.5 -27.5,5.75 -27.5,5.75 0,0 -18.5,-9 -31.5,-11.5 C 20.75,1.5 9.75,2 9,2.25 z"
           id="path3834-9" />
        <g
           clip-path="url(#clipPath5466)"
           transform="translate(0,-10)"
           id="g5438">
          <path
             style="fill:#a6dd8b"
             inkscape:connector-curvature="0"
             d="m 110.75,5.5 -4.25,7 c -0.75,9 -2.25,13.75 -8.5,16.5 -6.25,2.75 -12.25,3.5 -11,7.5 1.25,4 13,9.25 14.25,13 1.25,3.75 8.25,1.75 11,7 2.75,5.25 2,15.25 -3.75,17.25 -5.75,2 -17.5,0.5 -20.25,9.5 -2.75,9 -4.75,10.5 -9,12.75 -4.25,2.25 -7.25,10.5 -3.5,16.5 3.75,6 12.25,-1.25 15,-6.5 C 93.5,100.75 98,97.25 98,97.25 h 23.75 l 59,-1.75 3.25,-3.75 c 0,0 3.25,4 2.75,8.75 -0.5,4.75 -3.75,14.75 0.25,17.25 4,2.5 19.5,-2 24,-7 4.5,-5 -4.75,-28.25 -10.5,-29.5 -5.75,-1.25 -18.5,-1.75 -17,-7 1.5,-5.25 11.75,4.5 17.25,3.25 5.5,-1.25 16.75,-21 12,-25.25 C 208,48 188.5,47 187,44.25 c -1.5,-2.75 21,-8 22.25,-11 1.25,-3 -2.5,-7.25 -6.25,-8.5 C 199.25,23.5 189,41 182,40.5 175,40 162,46.25 164.75,52 c 2.75,5.75 -6,11 -14.5,6.5 -8.5,-4.5 -24.75,-13 -21.75,-24 3,-11 21.5,-18.75 21.5,-18.75 L 110.75,5.5 z M 97.188,112.72 c -1.595,0.15 -4.469,4.69 -4.938,7.03 -0.5,2.5 -3.25,6.75 -3.5,12.25 -0.25,5.5 4.75,6.75 8.75,6.5 4,-0.25 2.75,-6.75 2,-15 -0.25,0 -0.5,-10.25 -2,-10.75 -0.094,-0.03 -0.206,-0.04 -0.312,-0.03 z m 92.722,51.66 c -6.34,0.29 -6.63,7.46 -7.41,8.87 -1.25,2.25 2.25,13.75 2,18 -0.25,4.25 -4.75,5.25 -9.5,9.75 -4.75,4.5 0.5,16 11.25,31 l 44.75,1.25 -1,-35 c 0,0 4.75,-4.25 -20.75,-24.25 -9.56,-7.5 -15.54,-9.8 -19.34,-9.62 z M 39.94,180.91 c -4.03,-0.11 -8.282,5.71 -9.688,7.59 -1.5,2 -6.25,5 -17,9.5 l -14.5,34.25 53,4.25 c 0,0 1.75,-11 -4.25,-15.75 -6,-4.75 -17.25,-5.75 -18.25,-13.25 -1,-7.5 9.25,-10 13.75,-14.25 4.5,-4.25 2,-11.25 -2.25,-12.25 -0.266,-0.06 -0.544,-0.09 -0.812,-0.09 z"
             id="path5436" />
        </g>
        <path
           style="fill:#aac3e7"
           inkscape:connector-curvature="0"
           d="m 158.53,75.344 c -4.76,-0.015 -9.03,0.968 -11.53,3.156 -8,7 -35,0.75 -48.5,7 -13.5,6.25 -13.25,38 -14.75,44.5 -1.5,6.5 -17.5,20.75 -20,23.5 -2.5,2.75 -13.25,7.25 -19.5,8.5 -6.25,1.25 -12.75,7.25 -15.5,11 -2.021,2.76 -7.406,6.45 -10.125,8.22 -0.046,0.18 -0.079,0.35 -0.125,0.53 -0.134,0.53 -0.247,1.08 -0.375,1.63 4.98,-1.61 11.18,-8.18 16.625,-13.63 6.25,-6.25 20,-7.75 27.75,-11.5 7.75,-3.75 14.25,-19.75 26.5,-23.75 12.25,-4 21.25,11.75 24.25,18.5 3,6.75 1.75,12.75 3.75,17 2,4.25 11,11.75 11.5,13.5 0.5,1.75 -5,6.5 -6.25,8.5 -1.25,2 -10.5,7 -11.75,8.75 -0.97,1.35 -1.92,6.77 -2.31,9.22 0.41,-0.17 0.75,-0.31 1.12,-0.47 0.49,-2.53 1.52,-7.08 2.94,-8.5 2,-2 11.25,-4.5 12.5,-8.5 1.25,-4 7,-6.5 7,-6.5 0,0 2.75,4 16,14 8.83,6.67 12.76,15.53 14.41,20.72 0.67,0.17 1.53,0.41 2.03,0.53 -1.22,-4.32 -4.84,-16.24 -8.94,-20.75 -5,-5.5 -18.5,-10.75 -22.75,-22 -4.25,-11.25 -24.5,-34.25 -17.5,-40.25 7,-6 16.5,-4 28.5,7.5 12,11.5 46.25,5.75 57.75,3.75 9.95,-1.73 20.83,14.88 23.91,26.03 0.59,-2.09 1.12,-4 1.65,-5.75 -1.74,-1.92 -3.69,-4.62 -5.31,-8.28 -3.75,-8.5 -12,-13.25 -12,-13.25 0,0 8.75,-5 14.75,-7.75 1.62,-0.74 3.01,-1.68 4.19,-2.66 -0.16,-0.77 -0.26,-1.25 -0.44,-2.09 -0.03,-0.15 -0.06,-0.29 -0.09,-0.44 -4.77,5.56 -19.24,9.62 -21.66,10.94 -2.75,1.5 -18.25,3 -35.75,4.5 -17.5,1.5 -26.75,-7.5 -34.25,-14.75 -7.5,-7.25 -13,-36 -3,-38 10,-2 20,13.75 30,17 10,3.25 21.5,-15.75 19.75,-27 -1.2,-7.734 -14,-12.625 -24.47,-12.656 z m -53.34,13.281 c 1.27,0.001 5.86,1.594 6.56,2.375 2.25,2.5 2,7.25 0,8 -2,0.75 -12.75,8 -10.5,14.25 2.25,6.25 1.75,18 -3.5,18 -5.25,0 -8,0 -10,-2.5 -2,-2.5 -2,-12 0,-19.75 2,-7.75 3.5,-15 8,-18.25 3.094,-2.234 6.63,-2.128 9.44,-2.125 z m 13.59,73.095 c 0.2,0.01 1.91,3.51 4.72,7.03 3,3.75 3.25,8.25 3.25,8.25 0,0 -4.25,-4.75 -6,-8 -1.75,-3.25 -2,-7.25 -2,-7.25 0,-0.03 0.02,-0.03 0.03,-0.03 z"
           id="path5280" />
        <path
           style="opacity:0.38696002;fill:none;stroke:#6d7f42;stroke-linecap:round;stroke-linejoin:round"
           inkscape:connector-curvature="0"
           d="M 122.75,62.25 C 129,62.75 135,60 133.5,55.75 132,51.5 121,48.5 120.25,52.75 c -0.75,4.25 2,10.5 2.5,9.5 z"
           id="path5319" />
        <path
           style="opacity:0.38696002;fill:none;stroke:#6d7f42;stroke-linecap:round;stroke-linejoin:round"
           inkscape:connector-curvature="0"
           d="m 108.75,46.75 c -8.5,-5.5 -8.5,-7.25 -7,-8 1.5,-0.75 10.25,5 12.75,8 2.5,3 -2.25,2 -5.75,0 z"
           id="path5321" />
        <g
           style="fill:none;stroke:#6d7f42"
           transform="translate(0,-10)"
           clip-path="url(#clipPath5383)"
           id="g5373">
          <path
             style="opacity:0.38696002;stroke-linecap:round;stroke-linejoin:round"
             inkscape:connector-curvature="0"
             d="M 15.75,151.25 C 48.75,148.75 54,147.75 52,141 50,134.25 43.25,117.5 29,118.5 14.75,119.5 6.25,111.75 6.25,111.75"
             id="path5323" />
          <path
             style="opacity:0.38696002"
             inkscape:connector-curvature="0"
             d="m 17.5,177.25 c 18.25,-10 28.75,-8.5 35,-11.5 6.25,-3 13.25,-5.75 15.75,-9.5 2.5,-3.75 5.75,-11.5 5.75,-18 0,-6.5 -3.5,-36 3.25,-43.5 6.75,-7.5 17.25,-26 26,-23.25 8.75,2.75 12.25,9.75 22,9.5 9.75,-0.25 21.75,-4 24.25,-12.25 2.5,-8.25 -15.75,-16 -16,-23 -0.25,-7 5.5,-14.25 20.25,-17 14.75,-2.75 23.5,-11.5 23.5,-11.5"
             id="path5311" />
          <path
             style="opacity:0.38696002;stroke-linecap:round;stroke-linejoin:round"
             inkscape:connector-curvature="0"
             d="m 14.5,161 c 15.25,-1.5 22.25,3.5 31.5,1.75 9.25,-1.75 13.25,-3 17.75,-5.75 4.5,-2.75 6,-3.75 6.25,-6.5 0.25,-2.75 1,-12.5 -3,-22 C 63,119 54.5,97 58.75,89.75 63,82.5 64,68.25 74.5,65.25 85,62.25 95.5,59 102.25,64 c 6.75,5 12.75,14.25 20,14.5 7.25,0.25 11.75,-1.5 14.5,-4.5 2.75,-3 4.5,-10.25 1.75,-13.75 -2.75,-3.5 -15.5,-5.5 -17.25,-9.5 -1.75,-4 -10.75,-17 -0.25,-26.75 10.5,-9.75 36.25,-8.25 36.25,-8.25"
             id="path5313" />
          <path
             style="opacity:0.38696002;stroke-linecap:round;stroke-linejoin:round"
             inkscape:connector-curvature="0"
             d="m 21.25,159 c 13.75,1 21.5,4.25 33.5,-0.5 12,-4.75 13.5,-5.25 13.75,-8.75 0.25,-3.5 -0.25,-15.75 -3,-20 C 62.75,125.5 52.5,116 49.75,105.5 47,95 50,64.5 58.25,57.25 66.5,50 90.25,50 95.75,46.75 101.25,43.5 101,30 108.75,22.25 116.5,14.5 135.75,10 135.75,10"
             id="path5315" />
          <path
             style="opacity:0.38696002;stroke-linecap:round;stroke-linejoin:round"
             inkscape:connector-curvature="0"
             d="m 190,18.5 c 11.75,5 39,9.75 47.25,40.25"
             id="path5317" />
          <path
             style="opacity:0.38696002;stroke-linecap:round;stroke-linejoin:round"
             inkscape:connector-curvature="0"
             d="m 9.75,214 c 19,-12.5 36,-1.25 49,-4 13,-2.75 38.25,-37.25 46,-37 7.75,0.25 5.5,-11.75 8.5,-13.25 3,-1.5 5.5,6 11.75,8 6.25,2 24.5,-2.75 23.5,-5.75 -1,-3 -7,-7.75 -5.5,-8.5 1.5,-0.75 8.5,5 12.75,3.5 4.25,-1.5 43.75,-1 48.5,-13.5 C 209,131 225.75,130 225.75,130"
             id="path5325" />
          <path
             style="opacity:0.38696002;stroke-linecap:round;stroke-linejoin:round"
             inkscape:connector-curvature="0"
             d="m 77.5,233.5 c 13.5,-11.5 23.25,-25 28.5,-27 5.25,-2 12.75,-3.75 15.75,-8 3,-4.25 2.5,-10.75 5.25,-12 2.75,-1.25 3.75,5.75 8.75,6 5,0.25 36.75,-5 42.75,-11.75 6,-6.75 32.25,-12.5 32.5,-14.5 0.25,-2 -1,-4.75 0.25,-5.5 1.25,-0.75 24.75,-6 24.75,-6"
             id="path5327" />
          <path
             style="opacity:0.38696002;stroke-linecap:round;stroke-linejoin:round"
             inkscape:connector-curvature="0"
             d="m 168.75,236 c 9,-13.75 20.5,-41 29.5,-42 9,-1 10.25,-2.5 12.5,-4.25 2.25,-1.75 17,2.25 17,2.25"
             id="path5329" />
        </g>
        <g
           style="fill:none;stroke:#d38484;stroke-width:2;stroke-linecap:round"
           transform="translate(0,-10)"
           clip-path="url(#clipPath5426)"
           id="g5400">
          <path
             inkscape:connector-curvature="0"
             d="m 57.75,20 -8.5,28.25 18,6.25 L 75,90.75 54,113 l 9,10.5 -12,11.5 0.5,4.5 20.25,24.5 14,-6.75 20.5,18.5 -10.5,28.25 10.25,8.5 -2.75,13"
             id="path5387" />
          <path
             inkscape:connector-curvature="0"
             d="m 105.75,212.25 12.5,-27.75 11,-7 27.5,15.75 20.5,-3.75 -0.25,-15.75 -10.25,-6 12.75,-26.25 5.75,-3.75 38.75,-10"
             id="path5389" />
        </g>
      </g>
      <g
         transform="matrix(3.2056164,0,0,2.835195,143.92122,226.06487)"
         id="layer3">
        <g
           style="opacity:0.26956997"
           transform="translate(0,182)"
           id="g4808">
          <path
             inkscape:connector-curvature="0"
             style="fill:url(#linearGradient3311)"
             d="m 219.25,-182 c 0,0 -24.25,9 -31.75,10.5 -7.5,1.5 -21,5.25 -21,5.25 4.92,-1.36 11.44,45.39 14.25,52.25 l -0.06,0.28 c 11.81,-4.07 51.21,-4.77 54.31,-12.78 0,0 -4.75,-15.25 -7.5,-29.75 -2.75,-14.5 -8.25,-25.75 -8.25,-25.75 z"
             id="path3834-4-9" />
          <path
             inkscape:connector-curvature="0"
             style="fill:url(#linearGradient3313)"
             d="m 27,-126.5 c 0,0 -5.5,12.75 -8.25,24.75 -2.75,12 -5.75,23 -5.75,23 L 63.625,-62.469 79.406,-121.38 27,-126.5 z"
             id="path3834-7-2-4-9" />
          <path
             inkscape:connector-curvature="0"
             style="fill:url(#linearGradient3315)"
             d="m 26,-24.5 c 0,0 -4,10.25 -7.5,24.25 -3.5,14 -5,30.75 -5,30.75 0,0 0.147,-0.045 0.438,-0.094 2.033,-0.338 11.218,-1.5 28.062,1.344 19.25,3.25 32.25,6 32.25,6 l 1.469,-52.5 -0.75,0.125 L 26,-24.5 z"
             id="path3834-7-26-9-7" />
          <path
             inkscape:connector-curvature="0"
             style="fill:url(#linearGradient3317)"
             d="m 114.75,-180.25 c 0,0 -3.25,3.5 -22,8 -18.75,4.5 -27.5,5.75 -27.5,5.75 5.182,14.7 12.03,29.27 14.25,44.75 l -0.094,0.31 48.034,-3.94 1.12,0.26 c -3.36,-13.33 -7.79,-54.6 -13.81,-55.13 z"
             id="path3834-4-9-6" />
          <path
             inkscape:connector-curvature="0"
             style="fill:url(#linearGradient3319)"
             d="M 117.59,-78.094 63.969,-62.375 63.625,-62.469 63.5,-62 l 12.25,46.5 -0.031,0.75 49.471,-8.875 0.53,0.187 0.03,-0.062 -8.25,-54.25 0.09,-0.344 z"
             id="path3834-7-26-0-0-9" />
          <path
             inkscape:connector-curvature="0"
             style="fill:url(#linearGradient3321)"
             d="m 128.56,-125.12 c 0.24,0.92 0.47,1.74 0.69,2.37 l -11.66,44.656 0.1,-0.031 51.81,17.375 11.19,-52.97 c -0.36,0.12 -0.7,0.25 -1,0.38 l -51.13,-11.78 z"
             id="path3834-7-2-4-3" />
          <path
             inkscape:connector-curvature="0"
             style="fill:url(#linearGradient3323)"
             d="M 125.53,-23.5 114.5,25 c 0,0 5.5,0.5 22.5,6.25 2.12,0.719 4.16,1.406 6.12,2.031 1.97,0.626 3.86,1.186 5.63,1.719 10.62,3.199 17.5,4.75 17.5,4.75 l 12.72,-45.406 c -0.51,0.1824 -1.02,0.3808 -1.53,0.5622 l -51.91,-18.406 z"
             id="path3834-7-26-9-85" />
          <path
             inkscape:connector-curvature="0"
             style="fill:url(#linearGradient3325)"
             d="m 218,-76 c -15.67,6.288 -31.7,11.15 -48.06,15.406 l -0.44,-0.156 9.5,55 -0.03,0.0937 c 17.84,-6.3597 35.38,-13.387 52.78,-20.844 0,0 -0.5,-4.5 -3.75,-19.75 -3.25,-15.25 -10,-29.75 -10,-29.75 z"
             id="path3834-7-26-0-0-3" />
        </g>
        <g
           style="opacity:0.04347797"
           transform="translate(0,182)"
           id="g4818">
          <path
             inkscape:connector-curvature="0"
             style="fill:url(#linearGradient3327)"
             d="m 13.719,-179.97 c -1.106,0 -1.972,0.03 -2.719,0.06 -0.445,0.02 -0.855,0.04 -1.1562,0.07 -0.0293,0 -0.066,-0.01 -0.0938,0 -0.3979,0.03 -0.6562,0.06 -0.75,0.09 0,0 7.5,13 11.75,27.75 4.25,14.75 6.25,25.5 6.25,25.5 l 51.469,5.12 0.937,-0.06 0.094,-0.31 c -2.22,-15.48 -9.068,-30.05 -14.25,-44.75 0,0 -18.5,-9 -31.5,-11.5 -1.018,-0.2 -2.01,-0.37 -3,-0.53 -0.596,-0.1 -1.167,-0.2 -1.75,-0.28 -0.237,-0.04 -0.453,-0.06 -0.688,-0.1 -1.306,-0.18 -2.588,-0.34 -3.812,-0.46 -0.735,-0.08 -1.395,-0.13 -2.094,-0.19 -0.685,-0.06 -1.353,-0.11 -2,-0.16 -0.992,-0.07 -1.89,-0.12 -2.781,-0.15 -1.456,-0.07 -2.769,-0.1 -3.906,-0.1 z"
             id="path3834-4-9-1" />
          <path
             inkscape:connector-curvature="0"
             style="fill:url(#linearGradient3329)"
             d="m 13,-78.75 c 0,0 5.75,16 9.25,30 3.5,14 3.75,24.25 3.75,24.25 l 48.969,9.875 0.75,-0.125 L 75.75,-15.5 63.5,-62 63.625,-62.469 13,-78.75 z"
             id="path3834-7-26-0-0-7" />
          <path
             inkscape:connector-curvature="0"
             style="fill:url(#linearGradient3331)"
             d="m 127.44,-125.38 -47.971,4 h -0.063 l -15.781,58.911 0.344,0.094 53.621,-15.719 11.66,-44.656 c -0.22,-0.63 -0.45,-1.45 -0.69,-2.37 l -1.12,-0.26 z"
             id="path3834-7-2-4-6" />
          <path
             inkscape:connector-curvature="0"
             style="fill:url(#linearGradient3333)"
             d="m 125.19,-23.625 -49.471,8.875 -1.469,52.5 c 0,0 12.75,-2.75 24,-6.25 C 109.5,28 114.5,25 114.5,25 l 11.22,-48.438 -0.53,-0.187 z"
             id="path3834-7-26-9-8" />
          <path
             inkscape:connector-curvature="0"
             style="fill:url(#linearGradient3335)"
             d="m 114.75,-180.25 c 6.02,0.53 10.45,41.8 13.81,55.13 l 51.13,11.78 c 0.3,-0.13 0.64,-0.26 1,-0.38 l 0.06,-0.28 c -2.81,-6.86 -9.33,-53.61 -14.25,-52.25 0,0 -0.61,-0.25 -1.72,-0.72 -3.32,-1.39 -11.09,-4.59 -20.28,-7.78 -12.25,-4.25 -29.75,-5.5 -29.75,-5.5 z"
             id="path3834-4-9-2" />
          <path
             inkscape:connector-curvature="0"
             style="fill:url(#linearGradient3337)"
             d="m 117.69,-78.125 -0.1,0.031 -0.09,0.344 8.25,53.25 -0.22,1 51.91,18.406 c 0.51,-0.1813 1.02,-0.3797 1.53,-0.5623 L 179,-5.75 l -9.5,-55 -51.81,-17.375 z"
             id="path3834-7-26-0-0-0" />
          <path
             inkscape:connector-curvature="0"
             style="fill:url(#linearGradient3339)"
             d="m 231.75,-26.5 c -17.4,7.457 -34.94,14.484 -52.78,20.844 L 166.25,39.75 c 0,0 13,-2.75 26,-5.75 13,-3 26.5,-8 26.5,-8 0,0 -0.75,-5 4.25,-24.5 5,-19.5 8.75,-28 8.75,-28 z"
             id="path3834-7-26-9-9" />
          <path
             inkscape:connector-curvature="0"
             style="fill:url(#linearGradient3341)"
             d="m 235,-126.5 c -3.1,8.01 -42.5,8.71 -54.31,12.78 l -11.19,52.97 0.44,0.156 C 186.3,-64.85 202.33,-69.712 218,-76 c 0,0 1.75,-10.5 6.75,-23.75 5,-13.25 10.25,-26.75 10.25,-26.75 z"
             id="path3834-7-2-4-5" />
        </g>
      </g>
    </g>
    <path
       d="m 279.74647,152.71724 2.28503,0.38407 c -0.29441,0.84145 -0.75745,1.4833 -1.39668,1.92547 -0.62915,0.43713 -1.41931,0.65448 -2.37308,0.65448 -1.50994,0 -2.62473,-0.49278 -3.34698,-1.48083 -0.57125,-0.79092 -0.85561,-1.79153 -0.85561,-2.99942 0,-1.44283 0.37242,-2.56986 1.1249,-3.38348 0.75242,-0.81872 1.70119,-1.22804 2.84623,-1.22804 1.29354,0 2.31013,0.42953 3.05256,1.28616 0.7474,0.85154 1.10224,2.16052 1.07202,3.92427 h -5.74526 c 0.0151,0.68481 0.20126,1.21543 0.55619,1.59701 0.35481,0.37653 0.79019,0.56605 1.32119,0.56605 0.35988,0 0.65935,-0.0985 0.90347,-0.29566 0.24408,-0.19713 0.43284,-0.51295 0.55614,-0.95005 z m 0.13345,-2.32729 c -0.0195,-0.66457 -0.19121,-1.16996 -0.51589,-1.51612 -0.32463,-0.34874 -0.72226,-0.52562 -1.19028,-0.52562 -0.5008,0 -0.91352,0.18192 -1.24318,0.54831 -0.32461,0.36646 -0.48563,0.86171 -0.48062,1.49093 h 3.42999 v 0.001 z"
       inkscape:connector-curvature="0"
       style="fill:#ffffff;fill-rule:evenodd"
       id="path18118-5-8" />
    <path
       d="m 259.6674,190.16719 c 10.89993,-7.65812 21.3768,-27.11996 15.63163,-43.83257 -1.06184,-4.93054 -3.79876,-9.89563 -3.38709,-14.90168 l 4.33791,-12.4636 2.61693,-4.21485 c 4.87753,-4.1741 10.24013,-5.72747 10.98455,0.55311 0.13238,0.8354 1.31892,2.16473 1.31892,2.16473 0.48354,0.79357 1.83754,-0.25615 2.76268,-0.30707 2.02207,-0.17217 4.51616,-0.2085 5.38577,1.8749 0.35197,0.96501 -0.31818,3.06643 -0.31818,3.06643 0,0 -0.17756,0.65365 0.0317,0.83786 0.15113,0.13276 0.59955,-0.0565 0.59955,-0.0565 0.68556,-0.0646 1.18497,-0.83038 1.87195,-0.87711 6.30893,0.28787 3.59437,3.8205 3.00967,5.32211 0.35933,0.30783 1.40945,0.14747 1.40945,0.14747 1.73313,0.18132 2.63356,0.27588 2.98769,2.10083 0.46372,1.34689 -0.0197,2.85758 -0.20564,4.27042 l -2.7159,11.29895 -2.23721,4.39633 c -1.38843,2.72822 -4.10909,4.00875 -5.45701,6.8207 l -22.76009,47.47637 z"
       inkscape:connector-curvature="0"
       style="fill:#89a02c;stroke:#242d23;stroke-width:1.37965262"
       sodipodi:nodetypes="ccccccscccssccscccsscc"
       id="path2830-6-5-6-9-2-0-8-8-4-7-6" />
    <path
       d="m 210.96236,193.64201 c 11.24313,7.1405 33.16754,9.33241 46.30355,-2.43974 4.1199,-2.88688 7.62452,-7.33839 12.38303,-8.88973 l 13.12462,-0.79291 4.88237,0.79706 c 5.7176,2.90683 9.21478,7.27472 3.73193,10.38823 -0.71639,0.44505 -1.47969,2.05731 -1.47969,2.05731 -0.54241,0.75423 0.94464,1.60321 1.34849,2.44052 0.93874,1.80663 1.9348,4.10278 0.3565,5.71257 -0.75069,0.6985 -2.93998,0.88891 -2.93998,0.88891 0,0 -0.66907,0.0879 -0.75747,0.35285 -0.0637,0.19124 0.28331,0.53356 0.28331,0.53356 0.32402,0.6101 1.22033,0.77709 1.52847,1.39539 2.17086,5.95503 -2.12256,4.80414 -3.72776,4.84223 -0.14409,0.45168 0.40859,1.36244 0.40859,1.36244 0.50242,1.67536 0.76313,2.546 -0.77682,3.57851 -1.05843,0.94946 -2.6329,1.08484 -4.00269,1.4579 l -11.42948,1.84595 -4.90263,-0.37531 c -3.04249,-0.23294 -5.26904,-2.25874 -8.37275,-2.4219 l -52.40331,-2.75599 z"
       inkscape:connector-curvature="0"
       style="fill:#88aa00;stroke:#242d23;stroke-width:1.37965262"
       sodipodi:nodetypes="ccccccscccssccscccsscc"
       id="path2830-6-5-6-9-2-0-8-8-4-7" />
    <path
       d="m 188.67764,147.51454 c -2.73217,13.07359 2.88693,34.46483 18.46285,42.70706 4.13389,2.86662 9.51284,4.60748 12.62358,8.54198 l 5.32807,12.07028 0.96309,4.87185 c -0.71346,6.39503 -3.56651,11.21204 -8.38852,7.14248 -0.66571,-0.51836 -2.43688,-0.67281 -2.43688,-0.67281 -0.89336,-0.2466 -1.16569,1.44912 -1.80569,2.12174 -1.35753,1.51472 -3.1518,3.25443 -5.20554,2.33236 -0.91416,-0.46207 -1.8572,-2.45511 -1.8572,-2.45511 0,0 -0.31589,-0.59871 -0.59406,-0.58923 -0.20064,0.006 -0.3988,0.45305 -0.3988,0.45305 -0.456,0.51807 -0.29849,1.41961 -0.7677,1.92566 -4.79758,4.12398 -5.22465,-0.3173 -5.82132,-1.81416 -0.4718,0.0226 -1.12848,0.8607 -1.12848,0.8607 -1.38766,1.0583 -2.10878,1.60796 -3.61052,0.52015 -1.2559,-0.66381 -1.93262,-2.09767 -2.75954,-3.25584 l -5.71789,-10.1066 -1.36362,-4.74336 c -0.84623,-2.94357 0.26564,-5.74645 -0.66714,-8.72337 l -15.74761,-50.26195 z"
       inkscape:connector-curvature="0"
       style="fill:#88aa00;stroke:#242d23;stroke-width:1.37965262"
       sodipodi:nodetypes="ccccccscccssccscccsscc"
       id="path2830-6-5-6-9-2-0-8-8-4" />
    <path
       d="m 226.03117,111.47745 c -13.21017,1.57713 -31.60266,13.75805 -34.40442,31.21241 -1.38453,4.8492 -1.30894,10.52283 -4.02798,14.74037 l -9.68872,8.92593 -4.28991,2.47287 c -6.26301,1.36435 -11.7204,0.18867 -9.42052,-5.69959 0.27651,-0.79901 -0.14361,-2.53359 -0.14361,-2.53359 -0.0525,-0.92881 -1.73998,-0.64614 -2.57928,-1.04025 -1.8631,-0.80773 -4.07826,-1.95917 -3.86426,-4.20789 0.14397,-1.01743 1.72353,-2.55152 1.72353,-2.55152 0,0 0.46411,-0.49182 0.3663,-0.75348 -0.0708,-0.18866 -0.55495,-0.2347 -0.55495,-0.2347 -0.63461,-0.26836 -1.43512,0.16955 -2.06257,-0.11511 -5.42459,-3.24725 -1.3698,-5.07248 -0.14781,-6.11847 -0.172,-0.44172 -1.17282,-0.79873 -1.17282,-0.79873 -1.44211,-0.98222 -2.19119,-1.49276 -1.64443,-3.26922 0.2252,-1.40702 1.36218,-2.50904 2.1909,-3.66594 l 7.71116,-8.66952 4.04072,-2.81299 c 2.50759,-1.74563 5.50787,-1.58326 8.01918,-3.42186 l 42.40181,-31.041551 z"
       inkscape:connector-curvature="0"
       style="fill:#89a02c;stroke:#242d23;stroke-width:1.37965262"
       sodipodi:nodetypes="ccccccscccssccscccsscc"
       id="path2830-6-5-6-9-2-0-8-8" />
    <path
       d="m 271.57985,135.46717 c -3.76558,-12.81202 -17.37144,-24.15106 -34.9777,-23.99545 -4.99315,-0.55661 -10.551,0.47054 -15.14772,-1.51308 l -10.38939,-8.09217 -3.14781,-3.831378 c -2.39067,-5.970517 -2.15242,-11.570064 4.01458,-10.281315 0.83087,0.139585 2.4633,-0.567405 2.4633,-0.567405 0.90303,-0.208041 0.3423,-1.830783 0.58837,-2.727758 0.48031,-1.97978 1.23896,-4.365773 3.48256,-4.531318 1.02308,-0.02831 2.79424,1.277874 2.79424,1.277874 0,0 0.56075,0.376854 0.80123,0.236148 0.17339,-0.101669 0.13724,-0.588753 0.13724,-0.588753 0.15693,-0.673212 -0.40733,-1.392138 -0.23307,-2.061033 2.27754,-5.91467 4.75024,-2.207283 5.98217,-1.173246 0.4049,-0.244214 0.58735,-1.294941 0.58735,-1.294941 0.72222,-1.592324 1.09778,-2.419487 2.9336,-2.17644 1.41924,-0.0138 2.69196,0.927215 3.96686,1.553462 l 9.80566,6.177956 3.43986,3.527605 c 2.13473,2.189167 2.4788,5.186391 4.70546,7.363609 l 14.38714,14.069263 10.9608,7.02239 c -4.50345,5.61512 -5.73786,12.77862 -7.15537,21.60701 z"
       inkscape:connector-curvature="0"
       style="fill:#88aa00;stroke:#000000;stroke-width:1.37965262;stroke-opacity:1"
       sodipodi:nodetypes="ccccccscccssccscccssccc"
       id="path2830-6-5-6-9-2-0-8-8-4-7-6-9" />
    <g
       transform="matrix(0.24356422,0,0,0.2340664,165.98537,14.048325)"
       id="g4"
       style="fill:#22280b">
      <path
         inkscape:connector-curvature="0"
         d="m 228.27395,680.11448 c 0,0 -11.9391,7.2672 8.3052,9.34351 24.3967,3.11437 37.3741,2.59576 64.3663,-2.59534 0,0 7.2672,4.67165 17.1297,8.30546 -60.7327,25.9542 -137.557,-1.5577 -89.8013,-15.0536 l 1e-4,-3e-5 z m -7.7864,-33.7402 c 0,0 -12.9769,9.86233 7.2672,11.9386 26.4735,2.59576 47.2368,3.11437 83.0534,-4.15263 0,0 4.6718,5.19089 12.4579,7.78643 -73.1906,21.8016 -155.206,2.07631 -102.778,-15.5725 l -5e-4,10e-5 z m 143.267,59.1754 c 0,0 8.8245,7.26741 -9.8626,12.9769 -34.7787,10.3818 -145.863,13.4961 -177.008,0 -10.9006,-4.67144 9.8628,-11.4198 16.6105,-12.4579 6.7482,-1.55708 10.3816,-1.55708 10.3816,-1.55708 -11.9384,-8.30546 -79.4195,17.1295 -34.2595,24.3967 124.061,20.2443 226.321,-8.82428 194.137,-23.3587 l 10e-4,8e-5 z m -129.771,-94.4732 c 0,0 -56.5799,13.4961 -20.2439,18.1678 15.5725,2.0761 46.1983,1.5575 74.7481,-0.51903 23.3585,-2.07631 46.7176,-6.22894 46.7176,-6.22894 0,0 -8.3055,3.63339 -14.0156,7.26741 -57.6179,15.053 -168.183,8.30504 -136.519,-7.26741 26.9923,-12.9773 49.3125,-11.4198 49.3125,-11.4198 l 3e-4,-3e-5 z m 101.222,56.5799 c 58.1372,-30.1069 31.1451,-59.1754 12.4579,-55.5416 -4.6719,1.03805 -6.7482,2.07631 -6.7482,2.07631 0,0 1.5573,-3.11457 5.1907,-4.15263 36.8552,-12.9773 65.9238,38.9309 -11.9384,59.1752 0,0 0.5186,-0.51903 1.038,-1.55729 l 0,10e-6 z m -95.5117,82.0153 c 56.0613,3.63381 141.71,-2.07631 143.786,-28.5494 0,0 -4.1525,10.3818 -46.1981,18.1676 -47.7558,8.8247 -106.931,7.78643 -141.71,2.07631 0,0 7.267,6.22915 44.122,8.30546 l 1e-4,3e-5 z"
         style="fill:#22280b"
         id="path6" />
      <a
         transform="translate(-81,63)"
         id="a8"
         style="fill:#22280b">
        <path
           inkscape:connector-curvature="0"
           style="fill:#22280b"
           d="m 381.05061,376.92173 c 0,0 32.1832,32.7022 -30.6261,82.0153 -50.3512,39.9692 -11.4198,62.8088 0,88.7629 -29.5878,-26.4728 -50.8702,-49.8319 -36.336,-71.6335 21.2828,-32.1832 79.939,-47.7554 66.9621,-99.1446 l 0,-10e-5 z m -16.6105,148.977 c 15.053,17.1299 -4.1528,32.7026 -4.1528,32.7026 0,0 38.4121,-19.7253 20.7633,-44.1224 -16.0919,-23.3585 -28.5498,-34.7783 38.9311,-73.7098 0,0 -106.412,26.4735 -55.5416,85.1297 l 0,-10e-5 z"
           id="path10" />
      </a>
    </g>
  </g>
  <metadata
     id="metadata12">
    <rdf:RDF>
      <cc:Work>
        <dc:format>image/svg+xml</dc:format>
        <dc:type
           rdf:resource="http://purl.org/dc/dcmitype/StillImage" />
        <cc:license
           rdf:resource="http://creativecommons.org/licenses/publicdomain/" />
        <dc:publisher>
          <cc:Agent
             rdf:about="http://openclipart.org/">
            <dc:title>Openclipart</dc:title>
          </cc:Agent>
        </dc:publisher>
        <dc:title></dc:title>
        <dc:date>2012-06-25T17:07:10</dc:date>
        <dc:description>A circle of 5 Hands</dc:description>
        <dc:source>https://openclipart.org/detail/170906/circle-of-hands-by-tavin-170906</dc:source>
        <dc:creator>
          <cc:Agent>
            <dc:title>Tavin</dc:title>
          </cc:Agent>
        </dc:creator>
        <dc:subject>
          <rdf:Bag>
            <rdf:li>freund</rdf:li>
            <rdf:li>friend</rdf:li>
            <rdf:li>friendship</rdf:li>
            <rdf:li>hand</rdf:li>
            <rdf:li>hands</rdf:li>
            <rdf:li>help</rdf:li>
            <rdf:li>inclusion</rdf:li>
            <rdf:li>together</rdf:li>
          </rdf:Bag>
        </dc:subject>
      </cc:Work>
      <cc:License
         rdf:about="http://creativecommons.org/licenses/publicdomain/">
        <cc:permits
           rdf:resource="http://creativecommons.org/ns#Reproduction" />
        <cc:permits
           rdf:resource="http://creativecommons.org/ns#Distribution" />
        <cc:permits
           rdf:resource="http://creativecommons.org/ns#DerivativeWorks" />
      </cc:License>
    </rdf:RDF>
  </metadata>
</svg>
